<svg xmlns="http://www.w3.org/2000/svg" viewBox="0 9.949999809265137 181.1999969482422 36.95000076293945" data-asc="0.924" width="181.1999969482422" height="36.95000076293945"><defs/><g fill="#000000"><g transform="translate(0, 0)"><path d="M24.60 46.20Q23.45 46.20 20.35 42.03Q17.25 37.85 12.85 30.40L17.45 29.00Q21.60 35.30 24.38 38.85Q27.15 42.40 29.30 44Q31.45 45.60 33.50 45.60Q33.60 45.60 33.60 45.90Q33.60 46.20 33.50 46.20L24.60 46.20M13.85 14.80Q18.40 14.80 20.90 16.48Q23.40 18.15 23.40 21.15Q23.40 24 21.78 26.30Q20.15 28.60 17.55 29.88Q14.95 31.15 12.10 31.15Q10.15 31.15 9.35 31.10L9.35 42.15Q9.35 43.70 9.60 44.40Q9.85 45.10 10.58 45.35Q11.30 45.60 12.90 45.60Q13 45.60 13 45.90Q13 46.20 12.90 46.20Q11.25 46.20 10.30 46.15L6.50 46.10L2.85 46.15Q1.85 46.20 0.15 46.20Q0 46.20 0 45.90Q0 45.60 0.15 45.60Q1.75 45.60 2.47 45.35Q3.20 45.10 3.47 44.38Q3.75 43.65 3.75 42.15L3.75 19Q3.75 17.50 3.50 16.80Q3.25 16.10 2.50 15.83Q1.75 15.55 0.20 15.55Q0.10 15.55 0.10 15.25Q0.10 14.95 0.20 14.95L2.85 15Q5.15 15.10 6.50 15.10Q8.20 15.10 10.05 14.95Q10.70 14.90 11.68 14.85Q12.65 14.80 13.85 14.80M17.70 23.05Q17.70 18.95 16.50 17.40Q15.30 15.85 13.05 15.85Q11.05 15.85 10.20 16.60Q9.35 17.35 9.35 19.10L9.35 29.70Q10.55 29.90 12.25 29.90Q15.15 29.90 16.43 28.28Q17.70 26.65 17.70 23.05ZM44.75 46.80Q41.60 46.80 39.30 45.48Q37 44.15 35.80 41.93Q34.60 39.70 34.60 37.10Q34.60 34.20 36.05 31.75Q37.50 29.30 40.08 27.88Q42.65 26.45 45.90 26.45Q49 26.45 50.70 27.85Q52.40 29.25 52.40 32.20Q52.40 33.75 51.85 33.75L47.05 33.75Q47.15 30.70 46.45 29.08Q45.75 27.45 44 27.45Q42 27.45 40.83 29.50Q39.65 31.55 39.65 34.95Q39.65 39.35 41.67 41.85Q43.70 44.35 47.50 44.35Q48.85 44.35 49.80 44.03Q50.75 43.70 52.30 42.95L52.40 42.90Q52.50 42.90 52.63 43.10Q52.75 43.30 52.65 43.40Q50.80 45.20 48.90 46Q47 46.80 44.75 46.80M37.85 32.85L48.80 32.65L48.80 33.75L37.90 33.80L37.85 32.85ZM63.35 46.85Q61.15 46.85 59.38 45.70Q57.60 44.55 56.55 42.33Q55.50 40.10 55.50 37.10Q55.50 33.30 57.28 30.88Q59.05 28.45 61.68 27.35Q64.30 26.25 66.95 26.25Q70 26.25 73.10 27.80L71.95 31.85Q70.90 29.60 69.55 28.58Q68.20 27.55 66.20 27.55Q63.50 27.55 62.08 29.43Q60.65 31.30 60.65 35.50Q60.65 39.70 62.15 42.08Q63.65 44.45 66.10 44.45Q67.90 44.45 69.38 43.48Q70.85 42.50 72.50 40.70L73 41.15Q70.70 43.70 68.48 45.28Q66.25 46.85 63.35 46.85M75.55 40.40Q75.55 42.10 75.88 42.80Q76.20 43.50 76.95 43.50Q77.60 43.50 79 42.95L79.05 42.95Q79.20 42.95 79.33 43.20Q79.45 43.45 79.35 43.50L72.45 46.85L72.20 46.90Q71.65 46.90 71.25 45.60Q70.85 44.30 70.85 42.10L70.85 16.75Q70.85 15 70.53 14.25Q70.20 13.50 69.40 13.50Q68.75 13.50 67.55 14.05L67.50 14.05Q67.30 14.05 67.18 13.77Q67.05 13.50 67.15 13.45L74.50 10L74.70 9.95Q74.95 9.95 75.25 10.18Q75.55 10.40 75.55 10.60L75.55 40.40ZM95.35 46.50Q95.15 46.60 94.85 46.60Q93.85 46.60 93 45.33Q92.15 44.05 92.15 41.95L92.15 33.45Q92.15 30.25 91.63 28.80Q91.10 27.35 89.85 27.35Q87.20 27.35 86.85 31.45Q86.70 32.95 85.98 33.60Q85.25 34.25 83.95 34.25Q82.70 34.25 82.13 33.73Q81.55 33.20 81.55 32.35Q81.55 30.85 83.30 29.48Q85.05 28.10 87.53 27.25Q90 26.40 91.90 26.40Q94.10 26.40 95.48 27.78Q96.85 29.15 96.85 31.95L96.85 40.80Q96.85 42.25 97.38 43.05Q97.90 43.85 98.85 43.85Q99.55 43.85 100.30 43.50L100.35 43.50Q100.55 43.50 100.63 43.73Q100.70 43.95 100.50 44.05L95.35 46.50M85.75 46.55Q83.60 46.55 82.50 45.60Q81.40 44.65 81.40 42.95Q81.40 41.60 82.05 40.78Q82.70 39.95 83.68 39.48Q84.65 39 86.40 38.40L87.65 37.95L92.65 36.10L92.85 36.85L90 38.15Q89.85 38.20 89 38.53Q88.15 38.85 87.53 39.60Q86.90 40.35 86.90 41.35Q86.90 42.55 87.68 43.23Q88.45 43.90 89.45 43.90Q90.25 43.90 91.10 43.35L93.60 41.65L93.65 42.45L90.15 44.95Q89 45.80 88 46.18Q87 46.55 85.75 46.55ZM112.15 46.80Q108.85 46.80 106.58 45.38Q104.30 43.95 103.17 41.68Q102.05 39.40 102.05 36.90Q102.05 33.75 103.80 31.38Q105.55 29.00 108.28 27.73Q111 26.45 113.85 26.45Q116.25 26.45 118.18 27.45Q120.10 28.45 120.10 30.20Q120.10 31.15 119.38 31.83Q118.65 32.50 117.35 32.50Q116.15 32.50 115.45 31.88Q114.75 31.25 114.30 29.95Q113.85 28.55 113.43 28.03Q113 27.50 111.90 27.50Q109.75 27.50 108.48 29.63Q107.20 31.75 107.20 35.25Q107.20 39.40 109.05 41.88Q110.90 44.35 114.95 44.35Q116.30 44.35 117.28 44.05Q118.25 43.75 119.75 43.05L119.80 43.05Q119.95 43.05 120.08 43.20Q120.20 43.35 120.10 43.45Q118.25 45.15 116.40 45.98Q114.55 46.80 112.15 46.80ZM130.90 46.80Q128.70 46.80 127.15 45.75Q125.60 44.70 125.60 42.20L125.60 31.10Q125.60 29.55 125.05 28.95Q124.50 28.35 123.05 28.35Q123 28.35 122.92 28.20Q122.85 28.05 122.85 27.90Q122.85 27.70 122.90 27.58Q122.95 27.45 123.05 27.45Q125.60 27.35 127.17 26.35Q128.75 25.35 129.60 23.30Q129.70 23.10 130.03 23.10Q130.35 23.10 130.35 23.30L130.35 40.55Q130.35 42.45 131.32 43.35Q132.30 44.25 133.90 44.25Q135.90 44.25 137.80 42.75L137.90 42.70Q138.10 42.70 138.22 42.90Q138.35 43.10 138.20 43.20Q136.35 45.05 134.60 45.93Q132.85 46.80 130.90 46.80M136.65 29.45Q133 28.65 128.60 28.65L128.60 27.35Q131.85 27.35 136.85 26.85Q136.95 26.85 137.07 27.23Q137.20 27.60 137.20 28.05Q137.20 28.55 137.03 29.03Q136.85 29.50 136.65 29.45ZM150.35 46.85Q147.25 46.85 144.93 45.43Q142.60 44 141.35 41.58Q140.10 39.15 140.10 36.30Q140.10 33.05 141.75 30.78Q143.40 28.50 145.95 27.38Q148.50 26.25 151.20 26.25Q154.30 26.25 156.60 27.70Q158.90 29.15 160.13 31.53Q161.35 33.90 161.35 36.60Q161.35 39.60 159.85 41.93Q158.35 44.25 155.82 45.55Q153.30 46.85 150.35 46.85M151.85 45.80Q153.80 45.80 154.82 43.88Q155.85 41.95 155.85 38.35Q155.85 34.85 154.95 32.35Q154.05 29.85 152.60 28.58Q151.15 27.30 149.50 27.30Q145.50 27.30 145.50 34.45Q145.50 37.80 146.35 40.38Q147.20 42.95 148.65 44.38Q150.10 45.80 151.85 45.80ZM170.60 32Q173.35 28.85 175.02 27.63Q176.70 26.40 177.90 26.40Q179.05 26.40 180.13 27.23Q181.20 28.05 181.20 29.20Q181.20 30.25 180.55 30.93Q179.90 31.60 178.85 31.60Q178.10 31.60 177.63 31.30Q177.15 31 176.65 30.40Q176.20 29.90 175.88 29.68Q175.55 29.45 175.10 29.45Q174.55 29.45 173.72 30.05Q172.90 30.65 171 32.65L170.60 32M164.90 46.20Q164.75 46.20 164.75 45.90Q164.75 45.60 164.90 45.60Q166.45 45.60 167 44.88Q167.55 44.15 167.55 42.15L167.55 32.75Q167.55 31.20 167.17 30.48Q166.80 29.75 166 29.75Q165.15 29.75 163.60 30.45L163.50 30.45Q163.35 30.45 163.27 30.20Q163.20 29.95 163.30 29.90L170.25 26.50Q170.55 26.40 170.60 26.40Q171.20 26.40 171.72 27.68Q172.25 28.95 172.25 31.05L172.25 42.15Q172.25 44.15 173.20 44.88Q174.15 45.60 176.70 45.60Q176.90 45.60 176.90 45.90Q176.90 46.20 176.70 46.20Q174.95 46.20 173.95 46.15L169.90 46.10L166.95 46.15Q166.20 46.20 164.90 46.20Z"/></g></g></svg>